<svg width="214" height="33" viewBox="0 0 214 33" fill="none" xmlns="http://www.w3.org/2000/svg">
<path d="M7.03889 14.2058C9.83889 19.2369 14.35 23.3614 19.8528 25.9214L24.1306 22.0103C24.675 21.5125 25.4333 21.3703 26.1139 21.5658C28.2917 22.2236 30.625 22.5792 33.0556 22.5792C33.5713 22.5792 34.0658 22.7665 34.4305 23.0999C34.7951 23.4333 35 23.8854 35 24.3569V30.5792C35 31.0507 34.7951 31.5028 34.4305 31.8362C34.0658 32.1696 33.5713 32.3569 33.0556 32.3569C24.2887 32.3569 15.8809 29.1728 9.68175 23.505C3.48263 17.8373 0 10.1501 0 2.13471C0 1.66322 0.20486 1.21103 0.569514 0.877633C0.934169 0.544235 1.42875 0.356934 1.94444 0.356934H8.75C9.2657 0.356934 9.76028 0.544235 10.1249 0.877633C10.4896 1.21103 10.6944 1.66322 10.6944 2.13471C10.6944 4.35693 11.0833 6.49027 11.8028 8.48138C12.0167 9.1036 11.8611 9.79693 11.3167 10.2947L7.03889 14.2058Z" fill="#190F05"/>
<path d="M95.0423 16.398C95.0423 7.3463 86.2968 0 75.5212 0C64.7455 0 56 7.3463 56 16.398C56 24.3346 62.7153 30.943 71.6169 32.468V21.3174H67.7127V16.398H71.6169V12.2985C71.6169 9.13368 74.6818 6.55919 78.4493 6.55919H83.3296V11.4786H79.4254C78.3517 11.4786 77.4733 12.2165 77.4733 13.1184V16.398H83.3296V21.3174H77.4733V32.714C87.3315 31.8941 95.0423 24.9085 95.0423 16.398Z" fill="#190F05"/>
<path d="M127.124 0H143.173C149.286 0 154.254 4.25282 154.254 9.48705V23.2269C154.254 25.743 153.086 28.1561 151.008 29.9353C148.93 31.7145 146.112 32.714 143.173 32.714H127.124C121.01 32.714 116.042 28.4612 116.042 23.2269V9.48705C116.042 6.97093 117.21 4.55786 119.288 2.77869C121.366 0.999526 124.185 0 127.124 0ZM126.742 3.2714C124.917 3.2714 123.168 3.89179 121.878 4.9961C120.588 6.10042 119.863 7.59818 119.863 9.15991V23.5541C119.863 26.8091 122.94 29.4426 126.742 29.4426H143.555C145.379 29.4426 147.128 28.8222 148.418 27.7179C149.708 26.6136 150.433 25.1158 150.433 23.5541V9.15991C150.433 5.90487 147.357 3.2714 143.555 3.2714H126.742ZM145.179 5.72495C145.812 5.72495 146.42 5.94036 146.867 6.3238C147.315 6.70724 147.567 7.2273 147.567 7.76957C147.567 8.31184 147.315 8.8319 146.867 9.21534C146.42 9.59878 145.812 9.81419 145.179 9.81419C144.545 9.81419 143.938 9.59878 143.49 9.21534C143.042 8.8319 142.79 8.31184 142.79 7.76957C142.79 7.2273 143.042 6.70724 143.49 6.3238C143.938 5.94036 144.545 5.72495 145.179 5.72495ZM135.148 8.17849C137.682 8.17849 140.112 9.04015 141.903 10.5739C143.695 12.1077 144.701 14.1879 144.701 16.357C144.701 18.5261 143.695 20.6063 141.903 22.1401C140.112 23.6738 137.682 24.5355 135.148 24.5355C132.615 24.5355 130.185 23.6738 128.393 22.1401C126.602 20.6063 125.595 18.5261 125.595 16.357C125.595 14.1879 126.602 12.1077 128.393 10.5739C130.185 9.04015 132.615 8.17849 135.148 8.17849ZM135.148 11.4499C133.628 11.4499 132.17 11.9669 131.095 12.8871C130.02 13.8074 129.416 15.0555 129.416 16.357C129.416 17.6584 130.02 18.9066 131.095 19.8268C132.17 20.7471 133.628 21.2641 135.148 21.2641C136.668 21.2641 138.126 20.7471 139.201 19.8268C140.276 18.9066 140.88 17.6584 140.88 16.357C140.88 15.0555 140.276 13.8074 139.201 12.8871C138.126 11.9669 136.668 11.4499 135.148 11.4499Z" fill="#190F05"/>
<path d="M190.539 21.2337L200.455 16.357L190.539 11.4804V21.2337ZM212.625 8.50569C212.873 9.2697 213.045 10.2938 213.16 11.5942C213.294 12.8946 213.351 14.0163 213.351 14.9916L213.466 16.357C213.466 19.917 213.16 22.5341 212.625 24.2084C212.147 25.6714 211.039 26.6142 209.32 27.0206C208.422 27.2319 206.779 27.3782 204.257 27.4757C201.773 27.5895 199.499 27.6383 197.398 27.6383L194.36 27.7358C186.354 27.7358 181.368 27.4757 179.4 27.0206C177.68 26.6142 176.572 25.6714 176.095 24.2084C175.846 23.4444 175.674 22.4203 175.56 21.1199C175.426 19.8194 175.369 18.6978 175.369 17.7225L175.254 16.357C175.254 12.7971 175.56 10.18 176.095 8.50569C176.572 7.04271 177.68 6.09989 179.4 5.69351C180.298 5.48219 181.941 5.33589 184.463 5.23836C186.947 5.12457 189.22 5.0758 191.322 5.0758L194.36 4.97827C202.365 4.97827 207.352 5.23836 209.32 5.69351C211.039 6.09989 212.147 7.04271 212.625 8.50569Z" fill="#190F05"/>
</svg>
