<svg width="16" height="10" viewBox="0 0 16 10" fill="none" xmlns="http://www.w3.org/2000/svg">
<path fill-rule="evenodd" clip-rule="evenodd" d="M8.75635 8.69458C8.55916 8.89014 8.29175 9 8.01292 9C7.73409 9 7.46668 8.89014 7.26949 8.69458L1.32102 2.79348C1.22059 2.69725 1.14048 2.58214 1.08537 2.45487C1.03026 2.32761 1.00125 2.19072 1.00004 2.05222C0.998826 1.91371 1.02543 1.77635 1.0783 1.64815C1.13118 1.51995 1.20925 1.40348 1.30798 1.30553C1.40672 1.20759 1.52412 1.13013 1.65335 1.07768C1.78258 1.02523 1.92104 0.998836 2.06066 1.00004C2.20028 1.00124 2.33826 1.03002 2.46655 1.08469C2.59484 1.13936 2.71087 1.21883 2.80787 1.31846L8.01292 6.48206L13.218 1.31846C13.4163 1.12844 13.6819 1.0233 13.9576 1.02568C14.2333 1.02805 14.4971 1.13776 14.692 1.33117C14.887 1.52458 14.9976 1.78621 15 2.05972C15.0024 2.33323 14.8964 2.59674 14.7048 2.79348L8.75635 8.69458Z" fill="white" stroke="white"/>
</svg>
