<svg width="68" height="68" viewBox="0 0 68 68" fill="none" xmlns="http://www.w3.org/2000/svg">
<path d="M34 38.25C31.8986 38.25 29.8443 37.6269 28.0971 36.4594C26.3498 35.2919 24.988 33.6325 24.1838 31.691C23.3796 29.7496 23.1692 27.6132 23.5792 25.5522C23.9891 23.4911 25.0011 21.5979 26.487 20.112C27.9729 18.6261 29.8661 17.6141 31.9272 17.2042C33.9882 16.7942 36.1246 17.0046 38.066 17.8088C40.0075 18.613 41.6669 19.9748 42.8344 21.7221C44.0019 23.4693 44.625 25.5236 44.625 27.625C44.6216 30.4419 43.5011 33.1424 41.5093 35.1343C39.5174 37.1261 36.8169 38.2466 34 38.25ZM34 21.25C32.7392 21.25 31.5066 21.6239 30.4582 22.3244C29.4099 23.0249 28.5928 24.0205 28.1103 25.1854C27.6278 26.3503 27.5015 27.6321 27.7475 28.8687C27.9935 30.1053 28.6006 31.2413 29.4922 32.1328C30.3838 33.0244 31.5197 33.6315 32.7563 33.8775C33.9929 34.1235 35.2747 33.9972 36.4396 33.5147C37.6045 33.0322 38.6001 32.2151 39.3006 31.1668C40.0011 30.1184 40.375 28.8859 40.375 27.625C40.3733 25.9348 39.7011 24.3142 38.5059 23.1191C37.3108 21.9239 35.6902 21.2517 34 21.25Z" fill="#FCFAF1"/>
<path d="M34 63.75L16.0735 42.6084C15.8244 42.2909 15.5779 41.9715 15.334 41.65C12.2734 37.6155 10.6193 32.6891 10.625 27.625C10.625 21.4256 13.0877 15.48 17.4714 11.0964C21.8551 6.71272 27.8006 4.25 34 4.25C40.1994 4.25 46.145 6.71272 50.5286 11.0964C54.9123 15.48 57.375 21.4256 57.375 27.625C57.3799 32.6866 55.7267 37.6106 52.6681 41.6436L52.666 41.65C52.666 41.65 52.0285 42.4873 51.9329 42.5999L34 63.75ZM18.7276 39.0894C18.7276 39.0894 19.2228 39.7439 19.3354 39.8841L34 57.1795L48.6838 39.8607C48.7773 39.7439 49.2745 39.0851 49.2766 39.083C51.7782 35.7874 53.1301 31.7625 53.125 27.625C53.125 22.5527 51.1101 17.6882 47.5234 14.1016C43.9368 10.5149 39.0723 8.5 34 8.5C28.9277 8.5 24.0632 10.5149 20.4766 14.1016C16.89 17.6882 14.875 22.5527 14.875 27.625C14.8698 31.7651 16.2232 35.7926 18.7276 39.0894Z" fill="#FCFAF1"/>
</svg>
