<svg width="44" height="54" viewBox="0 0 44 54" fill="none" xmlns="http://www.w3.org/2000/svg">
<path fill-rule="evenodd" clip-rule="evenodd" d="M21.6105 27.4283L36.1493 41.967C36.9208 42.7385 37.9671 43.1719 39.0581 43.1719C40.1492 43.1719 41.1955 42.7385 41.967 41.967C42.7385 41.1956 43.1719 40.1492 43.1719 39.0582C43.1719 37.9672 42.7385 36.9208 41.967 36.1493L27.4227 21.6106L41.9643 7.07181C42.3461 6.68981 42.6489 6.23635 42.8555 5.73732C43.062 5.23829 43.1683 4.70346 43.1682 4.16336C43.168 3.62326 43.0615 3.08848 42.8547 2.58955C42.6479 2.09061 42.3449 1.63729 41.9629 1.25548C41.5809 0.873663 41.1274 0.570826 40.6284 0.364258C40.1294 0.157689 39.5945 0.0514352 39.0544 0.0515625C38.5143 0.0516898 37.9796 0.158195 37.4806 0.364999C36.9817 0.571802 36.5284 0.874854 36.1466 1.25685L21.6105 15.7956L7.07176 1.25685C6.69259 0.863897 6.23895 0.550394 5.73732 0.334633C5.23569 0.118872 4.69612 0.00517311 4.15008 0.000172458C3.60404 -0.0048282 3.06247 0.0989684 2.55697 0.305506C2.05148 0.512044 1.59218 0.817186 1.20587 1.20313C0.819564 1.58907 0.513989 2.04809 0.306974 2.55339C0.0999602 3.05869 -0.00434699 3.60016 0.000138772 4.1462C0.00462454 4.69225 0.117813 5.23193 0.333101 5.73376C0.548389 6.23559 0.861464 6.68952 1.25406 7.06907L15.7983 21.6106L1.2568 36.1521C0.864207 36.5316 0.551131 36.9856 0.335844 37.4874C0.120556 37.9892 0.00736595 38.5289 0.00288018 39.075C-0.00160558 39.621 0.102702 40.1625 0.309716 40.6678C0.51673 41.1731 0.822305 41.6321 1.20861 42.018C1.59492 42.404 2.05422 42.7091 2.55972 42.9157C3.06521 43.1222 3.60678 43.226 4.15282 43.221C4.69886 43.216 5.23843 43.1023 5.74006 42.8865C6.24169 42.6708 6.69533 42.3573 7.0745 41.9643L21.6105 27.4283Z" fill="black"/>
</svg>
