<svg width="48" height="40" viewBox="0 0 48 40" fill="none" xmlns="http://www.w3.org/2000/svg">
<path d="M10.9631 4.14151C10.786 3.95632 10.5624 3.80387 10.3073 3.6943C10.0522 3.58474 9.77127 3.52055 9.48327 3.50602C9.19528 3.49149 8.90678 3.52694 8.63693 3.61002C8.36709 3.69309 8.12207 3.8219 7.91816 3.98787L4.81626 6.512C3.36731 7.69237 2.83332 9.36293 3.4663 10.8286C6.09641 16.8941 10.3696 22.4016 15.9699 26.9441C21.5575 31.4969 28.3322 34.9707 35.7933 37.1089C37.5962 37.6235 39.6512 37.1894 41.1031 36.0114L44.205 33.4897C44.4092 33.324 44.5676 33.1248 44.6698 32.9054C44.772 32.686 44.8156 32.4515 44.7977 32.2174C44.7799 31.9833 44.7009 31.7549 44.5661 31.5475C44.4314 31.3401 44.2438 31.1584 44.016 31.0144L37.0953 26.6392C36.8517 26.4861 36.5686 26.3798 36.2673 26.3282C35.9659 26.2767 35.6541 26.2813 35.3553 26.3417L28.7855 27.6757C27.9085 27.8527 26.9902 27.8426 26.1193 27.6465C25.2485 27.4504 24.4547 27.0749 23.8147 26.5563L16.4469 20.5642C15.8085 20.0442 15.346 19.399 15.1042 18.691C14.8625 17.9831 14.8496 17.2364 15.0669 16.5232L16.7109 11.1823C16.7852 10.9393 16.7908 10.6859 16.7274 10.4409C16.6641 10.1959 16.5333 9.9658 16.3449 9.76777L10.9631 4.14151ZM5.65324 2.14903C6.1782 1.72212 6.80888 1.39089 7.5034 1.17733C8.19791 0.963769 8.94036 0.872765 9.68145 0.910362C10.4225 0.947959 11.1453 1.1133 11.8018 1.39539C12.4583 1.67749 13.0334 2.0699 13.489 2.54655L18.8708 8.17037C19.8578 9.20197 20.2058 10.5457 19.8158 11.8139L18.1748 17.1548C18.0906 17.4315 18.0955 17.7211 18.189 17.9958C18.2825 18.2705 18.4616 18.5209 18.7088 18.723L26.0796 24.715C26.3284 24.9164 26.637 25.0622 26.9755 25.1383C27.3139 25.2143 27.6708 25.2181 28.0115 25.1491L34.5783 23.8151C35.3482 23.6595 36.1515 23.6479 36.9278 23.7809C37.704 23.914 38.4331 24.1883 39.0602 24.5833L45.978 28.9585C48.4649 30.5315 48.6929 33.519 46.467 35.3261L43.3651 37.8478C41.1451 39.6525 37.8272 40.4451 34.7343 39.5599C26.8166 37.2981 19.6284 33.6135 13.705 28.7805C7.76029 23.9657 3.22797 18.1229 0.445399 11.6871C-0.640567 9.17515 0.334402 6.47542 2.55433 4.67073L5.65324 2.14903Z" fill="#FCFAF1"/>
</svg>
