<svg width="141" height="40" viewBox="0 0 141 40" fill="none" xmlns="http://www.w3.org/2000/svg">
<path d="M34 20.0351C34 12.2877 26.384 6 17 6C7.616 6 0 12.2877 0 20.0351C0 26.8281 5.848 32.4842 13.6 33.7895V24.2456H10.2V20.0351H13.6V16.5263C13.6 13.8175 16.269 11.614 19.55 11.614H23.8V15.8246H20.4C19.465 15.8246 18.7 16.4561 18.7 17.2281V20.0351H23.8V24.2456H18.7V34C27.285 33.2982 34 27.3193 34 20.0351Z" fill="black"/>
<path d="M64.28 6H77.72C82.84 6 87 9.64 87 14.12V25.88C87 28.0336 86.0223 30.0989 84.282 31.6217C82.5416 33.1445 80.1812 34 77.72 34H64.28C59.16 34 55 30.36 55 25.88V14.12C55 11.9664 55.9777 9.90109 57.718 8.37829C59.4584 6.8555 61.8188 6 64.28 6ZM63.96 8.8C62.4324 8.8 60.9673 9.331 59.8871 10.2762C58.8069 11.2214 58.2 12.5033 58.2 13.84V26.16C58.2 28.946 60.776 31.2 63.96 31.2H78.04C79.5676 31.2 81.0327 30.669 82.1129 29.7238C83.1931 28.7786 83.8 27.4967 83.8 26.16V13.84C83.8 11.054 81.224 8.8 78.04 8.8H63.96ZM79.4 10.9C79.9304 10.9 80.4391 11.0844 80.8142 11.4126C81.1893 11.7408 81.4 12.1859 81.4 12.65C81.4 13.1141 81.1893 13.5592 80.8142 13.8874C80.4391 14.2156 79.9304 14.4 79.4 14.4C78.8696 14.4 78.3609 14.2156 77.9858 13.8874C77.6107 13.5592 77.4 13.1141 77.4 12.65C77.4 12.1859 77.6107 11.7408 77.9858 11.4126C78.3609 11.0844 78.8696 10.9 79.4 10.9ZM71 13C73.1217 13 75.1566 13.7375 76.6569 15.0503C78.1571 16.363 79 18.1435 79 20C79 21.8565 78.1571 23.637 76.6569 24.9497C75.1566 26.2625 73.1217 27 71 27C68.8783 27 66.8434 26.2625 65.3431 24.9497C63.8429 23.637 63 21.8565 63 20C63 18.1435 63.8429 16.363 65.3431 15.0503C66.8434 13.7375 68.8783 13 71 13ZM71 15.8C69.727 15.8 68.5061 16.2425 67.6059 17.0302C66.7057 17.8178 66.2 18.8861 66.2 20C66.2 21.1139 66.7057 22.1822 67.6059 22.9698C68.5061 23.7575 69.727 24.2 71 24.2C72.273 24.2 73.4939 23.7575 74.3941 22.9698C75.2943 22.1822 75.8 21.1139 75.8 20C75.8 18.8861 75.2943 17.8178 74.3941 17.0302C73.4939 16.2425 72.273 15.8 71 15.8Z" fill="black"/>
<path d="M121.2 24.0714L129.763 20L121.2 15.9286V24.0714ZM140.274 13.445C140.488 14.0829 140.637 14.9379 140.736 16.0236C140.851 17.1093 140.901 18.0457 140.901 18.86L141 20C141 22.9721 140.736 25.1571 140.274 26.555C139.861 27.7764 138.904 28.5636 137.419 28.9029C136.644 29.0793 135.225 29.2014 133.047 29.2829C130.902 29.3779 128.938 29.4186 127.123 29.4186L124.5 29.5C117.586 29.5 113.28 29.2829 111.581 28.9029C110.096 28.5636 109.139 27.7764 108.726 26.555C108.512 25.9171 108.363 25.0621 108.264 23.9764C108.149 22.8907 108.099 21.9543 108.099 21.14L108 20C108 17.0279 108.264 14.8429 108.726 13.445C109.139 12.2236 110.096 11.4364 111.581 11.0971C112.356 10.9207 113.775 10.7986 115.953 10.7171C118.098 10.6221 120.061 10.5814 121.876 10.5814L124.5 10.5C131.413 10.5 135.72 10.7171 137.419 11.0971C138.904 11.4364 139.861 12.2236 140.274 13.445Z" fill="black"/>
</svg>
