<svg width="1200" height="1613" viewBox="0 0 1200 1613" fill="none" xmlns="http://www.w3.org/2000/svg">
<mask id="path-1-inside-1_87_1318" fill="white">
<path fill-rule="evenodd" clip-rule="evenodd" d="M25 0C11.1929 0 0 11.1929 0 25V84.8906H0.0980905C0.0332958 85.4566 0 86.0321 0 86.6154V1598C0 1606.28 6.71571 1613 15 1613H1185C1193.28 1613 1200 1606.28 1200 1598V86.6154C1200 78.3311 1193.28 71.6154 1185 71.6154H204V25C204 11.1929 192.807 0 179 0H25Z"/>
</mask>
<path fill-rule="evenodd" clip-rule="evenodd" d="M25 0C11.1929 0 0 11.1929 0 25V84.8906H0.0980905C0.0332958 85.4566 0 86.0321 0 86.6154V1598C0 1606.28 6.71571 1613 15 1613H1185C1193.28 1613 1200 1606.28 1200 1598V86.6154C1200 78.3311 1193.28 71.6154 1185 71.6154H204V25C204 11.1929 192.807 0 179 0H25Z" fill="#CAC0B5" fill-opacity="0.8"/>
<path d="M0 84.8906H-6V90.8906H0V84.8906ZM0.0980905 84.8906L6.05915 85.5731L6.8242 78.8906H0.0980905V84.8906ZM204 71.6154H198V77.6154H204V71.6154ZM6 25C6 14.5066 14.5066 6 25 6V-6C7.87917 -6 -6 7.87918 -6 25H6ZM6 84.8906V25H-6V84.8906H6ZM0.0980905 78.8906H0V90.8906H0.0980905V78.8906ZM6 86.6154C6 86.2606 6.02024 85.9129 6.05915 85.5731L-5.86297 84.2082C-5.95365 85.0002 -6 85.8036 -6 86.6154H6ZM6 1598V86.6154H-6V1598H6ZM15 1607C10.0294 1607 6 1602.97 6 1598H-6C-6 1609.6 3.40201 1619 15 1619V1607ZM1185 1607H15V1619H1185V1607ZM1194 1598C1194 1602.97 1189.97 1607 1185 1607V1619C1196.6 1619 1206 1609.6 1206 1598H1194ZM1194 86.6154V1598H1206V86.6154H1194ZM1185 77.6154C1189.97 77.6154 1194 81.6448 1194 86.6154H1206C1206 75.0174 1196.6 65.6154 1185 65.6154V77.6154ZM204 77.6154H1185V65.6154H204V77.6154ZM198 25V71.6154H210V25H198ZM179 6C189.493 6 198 14.5066 198 25H210C210 7.87917 196.121 -6 179 -6V6ZM25 6H179V-6H25V6Z" fill="#190F05" mask="url(#path-1-inside-1_87_1318)"/>
</svg>
