<svg width="1200" height="1542" viewBox="0 0 1200 1542" fill="none" xmlns="http://www.w3.org/2000/svg">
<mask id="path-1-inside-1_163_6349" fill="white">
<path d="M0 15C0 6.71576 6.71573 0 15 0H1185C1193.28 0 1200 6.71573 1200 15V1526.38C1200 1534.67 1193.28 1541.38 1185 1541.38H15C6.71571 1541.38 0 1534.67 0 1526.38V15Z"/>
</mask>
<path d="M0 15C0 6.71576 6.71573 0 15 0H1185C1193.28 0 1200 6.71573 1200 15V1526.38C1200 1534.67 1193.28 1541.38 1185 1541.38H15C6.71571 1541.38 0 1534.67 0 1526.38V15Z" fill="#CAC0B5" fill-opacity="0.8"/>
<path d="M15 6H1185V-6H15V6ZM1194 15V1526.38H1206V15H1194ZM1185 1535.38H15V1547.38H1185V1535.38ZM6 1526.38V15H-6V1526.38H6ZM15 1535.38C10.0294 1535.38 6 1531.36 6 1526.38H-6C-6 1537.98 3.402 1547.38 15 1547.38V1535.38ZM1194 1526.38C1194 1531.36 1189.97 1535.38 1185 1535.38V1547.38C1196.6 1547.38 1206 1537.98 1206 1526.38H1194ZM1185 6C1189.97 6 1194 10.0294 1194 15H1206C1206 3.40203 1196.6 -6 1185 -6V6ZM15 -6C3.402 -6 -6 3.40207 -6 15H6C6 10.0295 10.0295 6 15 6V-6Z" fill="#190F05" mask="url(#path-1-inside-1_163_6349)"/>
</svg>
