<svg width="48" height="47" viewBox="0 0 48 47" fill="none" xmlns="http://www.w3.org/2000/svg">
<path d="M24 10.243C24 9.85487 24.158 9.48268 24.4393 9.20825C24.7206 8.93383 25.1022 8.77966 25.5 8.77966C25.8978 8.77966 26.2794 8.93383 26.5607 9.20825C26.842 9.48268 27 9.85487 27 10.243V26.3393C26.9999 26.5972 26.9299 26.8505 26.7972 27.0736C26.6644 27.2966 26.4736 27.4815 26.244 27.6094L15.744 33.4626C15.3994 33.6443 14.9957 33.6873 14.619 33.5824C14.2424 33.4775 13.9228 33.2331 13.7285 32.9013C13.5341 32.5696 13.4805 32.1768 13.5791 31.807C13.6777 31.4372 13.9206 31.1197 14.256 30.9223L24 25.4906V10.243Z" fill="#FCFAF1"/>
<path d="M24 46.8256C17.6348 46.8256 11.5303 44.3589 7.02944 39.9682C2.52856 35.5774 0 29.6223 0 23.4128C0 17.2034 2.52856 11.2482 7.02944 6.85746C11.5303 2.4667 17.6348 0 24 0C30.3652 0 36.4697 2.4667 40.9706 6.85746C45.4714 11.2482 48 17.2034 48 23.4128C48 29.6223 45.4714 35.5774 40.9706 39.9682C36.4697 44.3589 30.3652 46.8256 24 46.8256ZM3 23.4128C3 28.8461 5.21249 34.0568 9.15076 37.8988C13.089 41.7407 18.4305 43.899 24 43.899C29.5695 43.899 34.911 41.7407 38.8492 37.8988C42.7875 34.0568 45 28.8461 45 23.4128C45 17.9795 42.7875 12.7688 38.8492 8.92688C34.911 5.08497 29.5695 2.9266 24 2.9266C18.4305 2.9266 13.089 5.08497 9.15076 8.92688C5.21249 12.7688 3 17.9795 3 23.4128Z" fill="#FCFAF1"/>
</svg>
