<svg width="39" height="33" viewBox="0 0 39 33" fill="none" xmlns="http://www.w3.org/2000/svg">
<path d="M11.1237 0H27.1726C33.2865 0 38.254 4.25282 38.254 9.48705V23.2269C38.254 25.743 37.0865 28.1561 35.0083 29.9353C32.9301 31.7145 30.1116 32.714 27.1726 32.714H11.1237C5.00984 32.714 0.0423279 28.4612 0.0423279 23.2269V9.48705C0.0423279 6.97093 1.20983 4.55786 3.28799 2.77869C5.36615 0.999526 8.18474 0 11.1237 0ZM10.7416 3.2714C8.9174 3.2714 7.16793 3.89179 5.87804 4.9961C4.58815 6.10042 3.86349 7.59818 3.86349 9.15991V23.5541C3.86349 26.8091 6.93953 29.4426 10.7416 29.4426H27.5547C29.3789 29.4426 31.1284 28.8222 32.4183 27.7179C33.7082 26.6136 34.4328 25.1158 34.4328 23.5541V9.15991C34.4328 5.90487 31.3568 3.2714 27.5547 3.2714H10.7416ZM29.1787 5.72495C29.8121 5.72495 30.4196 5.94036 30.8674 6.3238C31.3153 6.70724 31.5669 7.2273 31.5669 7.76957C31.5669 8.31184 31.3153 8.8319 30.8674 9.21534C30.4196 9.59878 29.8121 9.81419 29.1787 9.81419C28.5453 9.81419 27.9378 9.59878 27.49 9.21534C27.0421 8.8319 26.7905 8.31184 26.7905 7.76957C26.7905 7.2273 27.0421 6.70724 27.49 6.3238C27.9378 5.94036 28.5453 5.72495 29.1787 5.72495ZM19.1481 8.17849C21.6817 8.17849 24.1116 9.04015 25.9031 10.5739C27.6946 12.1077 28.7011 14.1879 28.7011 16.357C28.7011 18.5261 27.6946 20.6063 25.9031 22.1401C24.1116 23.6738 21.6817 24.5355 19.1481 24.5355C16.6146 24.5355 14.1847 23.6738 12.3932 22.1401C10.6017 20.6063 9.59524 18.5261 9.59524 16.357C9.59524 14.1879 10.6017 12.1077 12.3932 10.5739C14.1847 9.04015 16.6146 8.17849 19.1481 8.17849ZM19.1481 11.4499C17.628 11.4499 16.1701 11.9669 15.0952 12.8871C14.0203 13.8074 13.4164 15.0555 13.4164 16.357C13.4164 17.6584 14.0203 18.9066 15.0952 19.8268C16.1701 20.7471 17.628 21.2641 19.1481 21.2641C20.6683 21.2641 22.1262 20.7471 23.2011 19.8268C24.276 18.9066 24.8799 17.6584 24.8799 16.357C24.8799 15.0555 24.276 13.8074 23.2011 12.8871C22.1262 11.9669 20.6683 11.4499 19.1481 11.4499Z" fill="#FEFEFC"/>
</svg>
