<svg width="28" height="36" viewBox="0 0 28 36" fill="none" xmlns="http://www.w3.org/2000/svg">
<path d="M14 17.1439C12.6739 17.1439 11.4021 16.6929 10.4645 15.8901C9.52678 15.0873 9 13.9985 9 12.8632C9 11.728 9.52678 10.6392 10.4645 9.83638C11.4021 9.03361 12.6739 8.58262 14 8.58262C15.3261 8.58262 16.5979 9.03361 17.5355 9.83638C18.4732 10.6392 19 11.728 19 12.8632C19 13.4254 18.8707 13.982 18.6194 14.5014C18.3681 15.0207 17.9998 15.4926 17.5355 15.8901C17.0712 16.2876 16.52 16.6029 15.9134 16.818C15.3068 17.0332 14.6566 17.1439 14 17.1439ZM14 0.877481C10.287 0.877481 6.72601 2.14026 4.1005 4.38803C1.475 6.6358 0 9.68442 0 12.8632C0 21.8526 14 35.1225 14 35.1225C14 35.1225 28 21.8526 28 12.8632C28 9.68442 26.525 6.6358 23.8995 4.38803C21.274 2.14026 17.713 0.877481 14 0.877481Z" fill="#FEFEFC"/>
</svg>
