<svg width="996" height="158" viewBox="0 0 996 158" fill="none" xmlns="http://www.w3.org/2000/svg">
<rect x="0.0932617" y="1.00011" width="156.802" height="156.802" rx="16" fill="#68665F"/>
<rect x="210.093" width="156.802" height="156.802" rx="16" fill="#68665F"/>
<mask id="path-3-inside-1_31_383" fill="white">
<path d="M279.323 37.0003C279.075 36.9993 278.827 37.0008 278.578 37.005C271.952 37.1221 265.335 39.1616 259.522 42.5042C250.22 47.8522 242.822 56.5835 240.688 66.6796C238.863 75.3132 241.121 84.8621 249.089 93.4712C248.775 90.8828 248.58 88.4076 248.496 86.0551C244.38 79.7983 243.54 73.4713 244.795 67.5351C246.623 58.8818 253.211 50.9468 261.624 46.1096C270.037 41.2729 280.123 39.582 288.843 42.8963C295.951 45.5976 302.372 51.601 306.466 62.4986C307.79 62.1364 309.137 61.7686 310.506 61.3931C306.038 49.3809 298.711 42.1852 290.343 39.0047C286.771 37.6471 283.051 37.0158 279.324 37.0001L279.323 37.0003ZM334.925 52.0579C333.942 52.0556 333.007 52.1956 332.148 52.4776L334.143 61.744L339.83 65.4129L349.093 63.4264C348.754 60.2054 346.256 56.827 342.787 54.5891C340.289 52.9775 337.461 52.0651 334.926 52.0581L334.925 52.0579ZM311.507 65.4349C290.246 71.2624 274.076 75.7125 253.122 75.9694C251.815 86.353 253.27 101.627 260.19 120H302.237C312.17 102.934 314.482 82.6901 311.507 65.4349ZM333.49 66.2914L314.603 100.052C313.146 106.234 312.772 108.318 311.489 111.802L336.528 68.2508L333.49 66.2914ZM328.513 66.9967L316.34 69.4642C316.502 70.8524 316.63 72.2441 316.726 73.6382L325.83 71.7927L328.513 66.9967ZM282.017 85.0473C282.017 85.0473 291.443 97.2102 289.476 103.565C288.595 106.413 285.018 108.569 282.017 108.569C279.017 108.569 275.439 106.413 274.558 103.565C272.592 97.21 282.017 85.0468 282.017 85.0468V85.0473Z"/>
</mask>
<path d="M279.323 37.0003L279.302 42.0003L281.387 42.0094L282.86 40.5346L279.323 37.0003ZM278.578 37.005L278.494 32.0057L278.49 32.0057L278.578 37.005ZM259.522 42.5042L257.029 38.1695L257.029 38.1695L259.522 42.5042ZM240.688 66.6796L235.796 65.6455L235.796 65.646L240.688 66.6796ZM249.089 93.4712L245.42 96.8675L255.918 108.209L254.053 92.8677L249.089 93.4712ZM248.496 86.0551L253.493 85.8764L253.443 84.4769L252.673 83.307L248.496 86.0551ZM244.795 67.5351L249.687 68.5691L249.687 68.5689L244.795 67.5351ZM261.624 46.1096L259.132 41.7749L259.132 41.7751L261.624 46.1096ZM288.843 42.8963L287.067 47.5701L287.067 47.5701L288.843 42.8963ZM306.466 62.4986L301.785 64.2569L303.388 68.5239L307.784 67.3216L306.466 62.4986ZM310.506 61.3931L311.828 66.2152L317.098 64.7708L315.193 59.6499L310.506 61.3931ZM290.343 39.0047L292.119 34.3309L292.119 34.3309L290.343 39.0047ZM279.324 37.0001L279.345 32.0001L277.26 31.9913L275.787 33.4658L279.324 37.0001ZM334.925 52.0579L338.421 48.4833L336.969 47.0627L334.937 47.0579L334.925 52.0579ZM332.148 52.4776L330.588 47.7272L326.313 49.1311L327.26 53.5297L332.148 52.4776ZM334.143 61.744L329.255 62.7962L329.691 64.8222L331.432 65.9457L334.143 61.744ZM339.83 65.4129L337.12 69.6146L338.857 70.7353L340.879 70.3018L339.83 65.4129ZM349.093 63.4264L350.142 68.3152L354.536 67.3728L354.066 62.9032L349.093 63.4264ZM342.787 54.5891L340.076 58.7907L340.076 58.7907L342.787 54.5891ZM334.926 52.0581L331.43 55.6327L332.881 57.0525L334.912 57.0581L334.926 52.0581ZM311.507 65.4349L316.434 64.5854L315.498 59.1565L310.185 60.6128L311.507 65.4349ZM253.122 75.9694L253.06 70.9698L248.704 71.0232L248.161 75.3452L253.122 75.9694ZM260.19 120L255.511 121.762L256.73 125H260.19V120ZM302.237 120V125H305.112L306.558 122.515L302.237 120ZM333.49 66.2914L336.2 62.0895L331.725 59.2038L329.126 63.8502L333.49 66.2914ZM314.603 100.052L310.239 97.6111L309.897 98.223L309.736 98.9054L314.603 100.052ZM311.489 111.802L306.797 110.073L315.824 114.294L311.489 111.802ZM336.528 68.2508L340.862 70.743L343.23 66.6241L339.238 64.049L336.528 68.2508ZM328.513 66.9967L332.877 69.4379L338.194 59.9325L327.52 62.0964L328.513 66.9967ZM316.34 69.4642L315.347 64.5639L310.843 65.477L311.374 70.0422L316.34 69.4642ZM316.726 73.6382L311.737 73.9798L312.127 79.6721L317.719 78.5386L316.726 73.6382ZM325.83 71.7927L326.823 76.693L329.073 76.237L330.193 74.2339L325.83 71.7927ZM282.017 85.0473H277.017V86.7578L278.065 88.1099L282.017 85.0473ZM289.476 103.565L284.7 102.087L284.7 102.088L289.476 103.565ZM274.558 103.565L279.335 102.087L279.335 102.087L274.558 103.565ZM282.017 85.0468H287.017V70.4315L278.065 81.9842L282.017 85.0468ZM279.345 32.0004C279.062 31.9991 278.778 32.0009 278.494 32.0057L278.662 42.0043C278.875 42.0007 279.089 41.9994 279.302 42.0003L279.345 32.0004ZM278.49 32.0057C270.914 32.1397 263.478 34.4621 257.029 38.1695L262.014 46.8388C267.193 43.8611 272.991 42.1045 278.667 42.0042L278.49 32.0057ZM257.029 38.1695C246.789 44.0571 238.288 53.8571 235.796 65.6455L245.58 67.7137C247.356 59.3099 253.65 51.6473 262.014 46.8388L257.029 38.1695ZM235.796 65.646C233.612 75.983 236.432 87.1573 245.42 96.8675L252.759 90.0748C245.809 82.5668 244.115 74.6434 245.58 67.7132L235.796 65.646ZM254.053 92.8677C253.754 90.4134 253.572 88.08 253.493 85.8764L243.499 86.2338C243.589 88.7352 243.795 91.3522 244.126 94.0746L254.053 92.8677ZM252.673 83.307C249.314 78.2011 248.699 73.2427 249.687 68.5691L239.903 66.5011C238.381 73.7 239.446 81.3955 244.319 88.8032L252.673 83.307ZM249.687 68.5689C251.157 61.61 256.64 54.743 264.116 50.4442L259.132 41.7751C249.783 47.1506 242.089 56.1536 239.903 66.5013L249.687 68.5689ZM264.116 50.4444C271.576 46.1557 280.084 44.916 287.067 47.5701L290.62 38.2225C280.163 34.248 268.499 36.3902 259.132 41.7749L264.116 50.4444ZM287.067 47.5701C292.638 49.6873 298.118 54.494 301.785 64.2569L311.146 60.7404C306.626 48.7079 299.265 41.5079 290.619 38.2224L287.067 47.5701ZM307.784 67.3216C309.107 66.9598 310.457 66.5912 311.828 66.2152L309.185 56.571C307.817 56.9459 306.473 57.313 305.147 57.6757L307.784 67.3216ZM315.193 59.6499C310.309 46.5226 302.052 38.1063 292.119 34.3309L288.567 43.6785C295.369 46.2641 301.767 52.2392 305.82 63.1363L315.193 59.6499ZM292.119 34.3309C287.944 32.7442 283.625 32.0182 279.345 32.0001L279.303 42.0001C282.476 42.0135 285.597 42.55 288.567 43.6785L292.119 34.3309ZM275.787 33.4658L275.787 33.466L282.86 40.5346L282.861 40.5344L275.787 33.4658ZM334.937 47.0579C333.475 47.0545 332.003 47.2625 330.588 47.7272L333.708 57.2279C334.01 57.1288 334.41 57.0567 334.914 57.0579L334.937 47.0579ZM327.26 53.5297L329.255 62.7962L339.031 60.6919L337.036 51.4254L327.26 53.5297ZM331.432 65.9457L337.12 69.6146L342.541 61.2113L336.853 57.5424L331.432 65.9457ZM340.879 70.3018L350.142 68.3152L348.045 58.5376L338.782 60.5241L340.879 70.3018ZM354.066 62.9032C353.516 57.6804 349.749 53.1305 345.497 50.3875L340.076 58.7907C342.762 60.5235 343.992 62.7304 344.121 63.9496L354.066 62.9032ZM345.497 50.3875C342.34 48.3506 338.59 47.0681 334.939 47.0581L334.912 57.0581C336.331 57.062 338.238 57.6045 340.076 58.7907L345.497 50.3875ZM338.422 48.4835L338.421 48.4833L331.429 55.6325L331.43 55.6327L338.422 48.4835ZM310.185 60.6128C288.87 66.455 273.285 70.7218 253.06 70.9698L253.183 80.9691C274.866 80.7032 291.622 76.0697 312.828 70.2571L310.185 60.6128ZM248.161 75.3452C246.732 86.6985 248.369 102.799 255.511 121.762L264.869 118.238C258.172 100.455 256.898 86.0075 258.082 76.5936L248.161 75.3452ZM260.19 125H302.237V115H260.19V125ZM306.558 122.515C317.167 104.288 319.578 82.8209 316.434 64.5854L306.579 66.2844C309.385 82.5594 307.172 101.58 297.915 117.485L306.558 122.515ZM329.126 63.8502L310.239 97.6111L318.966 102.493L337.853 68.7325L329.126 63.8502ZM309.736 98.9054C308.231 105.293 307.944 106.958 306.797 110.073L316.181 113.53C317.599 109.678 318.061 107.175 319.469 101.199L309.736 98.9054ZM315.824 114.294L340.862 70.743L332.193 65.7587L307.154 109.309L315.824 114.294ZM339.238 64.049L336.2 62.0895L330.78 70.4933L333.818 72.4527L339.238 64.049ZM327.52 62.0964L315.347 64.5639L317.334 74.3646L329.506 71.897L327.52 62.0964ZM311.374 70.0422C311.526 71.3517 311.647 72.6646 311.737 73.9798L321.714 73.2967C321.613 71.8236 321.477 70.353 321.307 68.8863L311.374 70.0422ZM317.719 78.5386L326.823 76.693L324.837 66.8923L315.732 68.7379L317.719 78.5386ZM330.193 74.2339L332.877 69.4379L324.149 64.5555L321.466 69.3515L330.193 74.2339ZM282.017 85.0473C278.065 88.1099 278.065 88.1093 278.064 88.1087C278.064 88.1086 278.064 88.108 278.063 88.1077C278.063 88.1072 278.063 88.1068 278.063 88.1066C278.062 88.1063 278.063 88.1066 278.063 88.1077C278.065 88.1098 278.069 88.1147 278.075 88.1225C278.087 88.138 278.107 88.1645 278.135 88.2016C278.191 88.2758 278.278 88.392 278.391 88.5459C278.618 88.8539 278.948 89.3105 279.34 89.8812C280.131 91.0307 281.152 92.604 282.104 94.3338C283.07 96.0893 283.883 97.8591 284.349 99.4209C284.85 101.099 284.757 101.901 284.7 102.087L294.253 105.043C295.178 102.052 294.645 98.9505 293.932 96.5608C293.184 94.0547 292.009 91.5921 290.865 89.5125C289.706 87.4071 288.493 85.5425 287.578 84.2128C287.118 83.5439 286.727 83.0006 286.446 82.6187C286.305 82.4276 286.191 82.2762 286.111 82.1692C286.07 82.1157 286.038 82.0731 286.014 82.0422C286.002 82.0267 285.992 82.0141 285.985 82.0045C285.981 81.9997 285.978 81.9956 285.976 81.9923C285.974 81.9906 285.973 81.9892 285.972 81.9879C285.972 81.9872 285.971 81.9864 285.971 81.9861C285.97 81.9853 285.97 81.9846 282.017 85.0473ZM284.7 102.088C284.704 102.072 284.543 102.472 283.821 102.94C283.12 103.395 282.406 103.569 282.017 103.569V113.569C284.629 113.569 287.204 112.665 289.262 111.33C291.3 110.008 293.367 107.906 294.253 105.043L284.7 102.088ZM282.017 103.569C281.629 103.569 280.915 103.395 280.214 102.94C279.492 102.472 279.33 102.072 279.335 102.087L269.782 105.043C270.668 107.906 272.735 110.008 274.772 111.33C276.83 112.665 279.406 113.569 282.017 113.569V103.569ZM279.335 102.087C279.277 101.901 279.184 101.099 279.685 99.4205C280.152 97.8587 280.965 96.0889 281.931 94.3334C282.883 92.6036 283.904 91.0303 284.695 89.8808C285.087 89.31 285.417 88.8534 285.643 88.5454C285.756 88.3915 285.844 88.2753 285.9 88.2011C285.928 88.164 285.948 88.1375 285.96 88.122C285.966 88.1142 285.97 88.1093 285.971 88.1072C285.972 88.1061 285.972 88.1058 285.972 88.1061C285.972 88.1063 285.972 88.1067 285.971 88.1072C285.971 88.1075 285.971 88.1081 285.971 88.1082C285.97 88.1088 285.97 88.1094 282.017 85.0468C278.065 81.9842 278.065 81.9849 278.064 81.9857C278.064 81.986 278.063 81.9868 278.063 81.9875C278.062 81.9887 278.06 81.9902 278.059 81.9919C278.057 81.9952 278.053 81.9993 278.05 82.0041C278.042 82.0137 278.033 82.0263 278.021 82.0418C277.997 82.0727 277.965 82.1152 277.924 82.1688C277.843 82.2758 277.73 82.4271 277.589 82.6183C277.308 83.0002 276.916 83.5435 276.456 84.2124C275.541 85.5421 274.329 87.4067 273.17 89.5121C272.025 91.5918 270.851 94.0543 270.103 96.5604C269.39 98.9501 268.856 102.052 269.782 105.043L279.335 102.087ZM277.017 85.0468V85.0473H287.017V85.0468H277.017Z" fill="#F8F4E1" mask="url(#path-3-inside-1_31_383)"/>
<rect x="420.13" y="1.00011" width="156.802" height="156.802" rx="16" fill="#68665F"/>
<path d="M503.243 50.2128C490.138 37.1077 471.924 34.0735 462.563 43.4343M462.563 43.4343C453.203 52.7951 456.241 71.0049 469.342 84.11M462.563 43.4343C463.693 49.0877 469.683 61.3951 484.605 65.4622M485.771 115.416C495.39 125.035 514.112 121.918 527.581 108.448C541.046 94.9787 544.167 76.2617 534.544 66.6381C528.743 67.7955 516.081 73.9515 511.898 89.2792C505.927 111.183 492.734 113.087 485.767 115.411M485.776 115.42C476.157 105.797 479.274 87.0797 492.744 73.6102C506.213 60.1454 524.93 57.0236 534.553 66.6473" stroke="#F8F4E1" stroke-width="5" stroke-linecap="round" stroke-linejoin="round"/>
<rect x="839.105" y="1.00011" width="156.802" height="156.802" rx="16" fill="#68665F"/>
<path d="M876.105 88.7223C879.933 91.6826 885.684 93.4118 892.246 93.3334C898.809 93.4118 904.56 91.6826 908.387 88.7223C912.215 85.762 917.966 84.0328 924.528 84.1112C931.091 84.0328 936.842 85.762 940.67 88.7223M899.164 38C897.704 39.0475 896.522 40.4345 895.718 42.0413C894.915 43.648 894.514 45.4262 894.552 47.2222C894.514 49.0182 894.915 50.7964 895.718 52.4032C896.522 54.0099 897.704 55.397 899.164 56.4445M917.611 38C916.151 39.0475 914.969 40.4345 914.165 42.0413C913.362 43.648 912.961 45.4262 912.999 47.2222C912.961 49.0182 913.362 50.7964 914.165 52.4032C914.969 54.0099 916.151 55.397 917.611 56.4445" stroke="#F8F4E1" stroke-width="5" stroke-linecap="round" stroke-linejoin="round"/>
<path d="M876.105 70.2776H940.67V93.3332C940.67 100.671 937.754 107.708 932.565 112.896C927.376 118.085 920.338 121 912.999 121H903.776C896.437 121 889.399 118.085 884.21 112.896C879.02 107.708 876.105 100.671 876.105 93.3332V70.2776Z" stroke="#F8F4E1" stroke-width="5" stroke-linecap="round" stroke-linejoin="round"/>
<path d="M939.498 101.292C941.557 102.238 943.817 102.663 946.08 102.53C948.342 102.397 950.537 101.711 952.472 100.531C954.407 99.3516 956.023 97.7148 957.177 95.7647C958.331 93.8146 958.988 91.6108 959.091 89.3472C959.193 87.0836 958.738 84.8294 957.766 82.7828C956.793 80.7362 955.332 78.9599 953.512 77.6099C951.692 76.26 949.568 75.3777 947.327 75.0408C945.086 74.7038 942.796 74.9225 940.66 75.6775" stroke="#F8F4E1" stroke-width="5" stroke-linecap="round" stroke-linejoin="round"/>
<rect x="629.279" width="156.802" height="156.802" rx="16" fill="#68665F"/>
<path d="M670.826 108.81C669.248 109.133 668.145 109.568 667.615 109.941C667.449 110.057 667.353 110.138 667.297 110.192C667.291 110.197 667.286 110.202 667.282 110.207C667.28 110.229 667.279 110.259 667.279 110.299C667.279 110.339 667.28 110.369 667.282 110.391C667.286 110.395 667.291 110.4 667.297 110.406C667.353 110.459 667.449 110.54 667.615 110.657L670.826 108.81ZM670.826 108.81C673.795 108.225 677.57 108.169 680.435 108.167L688.712 110.242V110.355L680.435 112.431C677.57 112.428 673.795 112.372 670.826 111.787C669.25 111.465 668.147 111.03 667.616 110.658L670.826 108.81ZM702.958 45.0297L702.957 45.0282C702.028 42.9763 701.241 40.8419 700.722 39H726.552C726.033 40.8419 725.246 42.9763 724.317 45.0282L724.316 45.0297C723.482 46.8761 722.52 48.6711 721.645 50.122C720.735 51.6321 720.016 52.6021 719.684 52.9304L719.675 52.9388L719.667 52.9472C717.215 55.423 715.242 56.1991 713.637 56.1991C712.032 56.1991 710.059 55.423 707.607 52.9472L707.599 52.9388L707.591 52.9304C707.258 52.6021 706.54 51.6321 705.629 50.122C704.754 48.6711 703.792 46.8761 702.958 45.0297ZM705.786 110.137V82.3854L707.159 82.445V108.861V110.861H709.159H718.115H720.115V108.861V105.113H721.488V112.251H707.906C707.664 112.251 707.061 112.056 706.543 111.525L706.528 111.51L706.512 111.494C705.98 110.971 705.786 110.363 705.786 110.137ZM724.802 58.0605L738.682 57.4817V63.3853H725.1H723.1V65.3853V68.619V70.619H725.1H738.682V76.5229L702.921 75.0364V58.9626L703.411 58.9409C706.465 61.7002 709.905 63.4329 713.637 63.4329C717.757 63.4329 721.513 61.3408 724.793 58.0703L724.797 58.0662C724.799 58.0643 724.8 58.0624 724.802 58.0605ZM747.279 78.8355H745.906V55.1688H747.279V78.8355ZM686.451 68.5034L686.944 67.7446H689.965V69.1342H686.88L686.451 68.5034ZM721.488 83.6502H720.115V82.9892L721.488 83.0443V83.6502Z" stroke="#F8F4E1" stroke-width="4"/>
<path d="M72.1256 56.5973C74.5917 56.5973 76.9569 55.6176 78.7007 53.8738C80.4445 52.13 81.4242 49.7648 81.4242 47.2987C81.4242 44.8325 80.4445 42.4674 78.7007 40.7235C76.9569 38.9797 74.5917 38 72.1256 38C69.6594 38 67.2943 38.9797 65.5504 40.7235C63.8066 42.4674 62.8269 44.8325 62.8269 47.2987C62.8269 49.7648 63.8066 52.13 65.5504 53.8738C67.2943 55.6176 69.6594 56.5973 72.1256 56.5973ZM72.1256 51.948C73.3586 51.948 74.5412 51.4581 75.4131 50.5862C76.2851 49.7143 76.7749 48.5317 76.7749 47.2987C76.7749 46.0656 76.2851 44.883 75.4131 44.0111C74.5412 43.1392 73.3586 42.6493 72.1256 42.6493C70.8925 42.6493 69.7099 43.1392 68.838 44.0111C67.9661 44.883 67.4762 46.0656 67.4762 47.2987C67.4762 48.5317 67.9661 49.7143 68.838 50.5862C69.7099 51.4581 70.8925 51.948 72.1256 51.948Z" fill="#F8F4E1"/>
<path d="M72.1256 56.5973C74.5917 56.5973 76.9569 55.6176 78.7007 53.8738C80.4445 52.13 81.4242 49.7648 81.4242 47.2987C81.4242 44.8325 80.4445 42.4674 78.7007 40.7235C76.9569 38.9797 74.5917 38 72.1256 38C69.6594 38 67.2943 38.9797 65.5504 40.7235C63.8066 42.4674 62.8269 44.8325 62.8269 47.2987C62.8269 49.7648 63.8066 52.13 65.5504 53.8738C67.2943 55.6176 69.6594 56.5973 72.1256 56.5973ZM72.1256 51.948C73.3586 51.948 74.5412 51.4581 75.4131 50.5862C76.2851 49.7143 76.7749 48.5317 76.7749 47.2987C76.7749 46.0656 76.2851 44.883 75.4131 44.0111C74.5412 43.1392 73.3586 42.6493 72.1256 42.6493C70.8925 42.6493 69.7099 43.1392 68.838 44.0111C67.9661 44.883 67.4762 46.0656 67.4762 47.2987C67.4762 48.5317 67.9661 49.7143 68.838 50.5862C69.7099 51.4581 70.8925 51.948 72.1256 51.948Z" stroke="#F8F4E1"/>
<path d="M87.2359 75.1946C87.2359 73.9616 86.746 72.779 85.8741 71.9071C85.0022 71.0351 83.8196 70.5453 82.5865 70.5453V79.844C83.8196 79.844 85.0022 79.3541 85.8741 78.4822C86.746 77.6103 87.2359 76.4277 87.2359 75.1946Z" fill="#F8F4E1"/>
<path d="M87.2359 75.1946C87.2359 73.9616 86.746 72.779 85.8741 71.9071C85.0022 71.0351 83.8196 70.5453 82.5865 70.5453V79.844C83.8196 79.844 85.0022 79.3541 85.8741 78.4822C86.746 77.6103 87.2359 76.4277 87.2359 75.1946Z" stroke="#F8F4E1"/>
<path fill-rule="evenodd" clip-rule="evenodd" d="M50.0412 105.415C50.042 103.972 49.5952 102.565 48.7626 101.387C47.9299 100.208 46.7522 99.3174 45.3919 98.8364V75.1946H57.0152V114.714C57.0152 116.564 57.75 118.337 59.0579 119.645C60.3658 120.953 62.1396 121.688 63.9892 121.688C65.8389 121.688 67.6127 120.953 68.9206 119.645C70.2285 118.337 70.9632 116.564 70.9632 114.714V96.1166H73.2879V114.714C73.2879 116.343 73.8458 117.843 74.785 119.031C75.6822 120.169 76.9118 120.999 78.3028 121.407C79.6938 121.814 81.1771 121.777 82.5465 121.303C83.9158 120.828 85.1033 119.938 85.9437 118.757C86.7841 117.577 87.2358 116.163 87.2359 114.714V88.487C90.8693 86.8133 96.5345 81.9594 96.5345 74.1973C96.5345 64.4175 87.5358 61.2466 84.9461 61.2466H45.3919V54.2726H40.7426V63.0227C39.3152 64.3012 38.4179 66.1563 38.4179 68.2206C38.4179 70.2849 39.3152 72.1423 40.7426 73.4186V98.8388C39.3827 99.3196 38.2053 100.21 37.3726 101.388C36.54 102.566 36.093 103.973 36.0933 105.415V119.363H40.7426V110.065H45.3919V119.363H50.0412V105.415ZM82.5866 85.5091L85.2901 84.2631C87.9496 83.038 91.8852 79.5045 91.8852 74.1973C91.8852 70.9567 90.4788 68.9947 88.8445 67.7138C88.0506 67.0968 87.1682 66.603 86.227 66.2493C85.8195 66.0894 85.3965 65.9725 84.9647 65.9006C84.9337 65.8975 84.9275 65.8959 84.9461 65.8959H45.3919V70.5453H61.6646V114.714C61.6646 115.33 61.9095 115.922 62.3454 116.358C62.7814 116.794 63.3727 117.039 63.9892 117.039C64.6058 117.039 65.1971 116.794 65.633 116.358C66.069 115.922 66.3139 115.33 66.3139 114.714V91.4673H77.9372V114.714C77.9372 115.33 78.1821 115.922 78.6181 116.358C79.0541 116.794 79.6453 117.039 80.2619 117.039C80.8784 117.039 81.4697 116.794 81.9057 116.358C82.3416 115.922 82.5866 115.33 82.5866 114.714V85.5091ZM112.235 65.1637C111.684 65.7914 111.099 66.3889 110.483 66.9537V72.7305C111.401 71.8238 112.556 71.324 113.574 71.0334C114.609 70.7405 115.678 70.615 116.596 70.5685C117.706 70.5159 118.817 70.5516 119.921 70.6754L119.983 70.6824L120.004 70.6847H120.014C121.076 70.8289 121.906 71.6797 122.02 72.7467V72.7769L122.029 72.8397C122.06 73.1582 122.08 73.4776 122.09 73.7975C122.113 74.4112 122.12 75.2597 122.052 76.1942C121.983 77.1194 121.836 78.1934 121.525 79.2302C121.218 80.2461 120.702 81.3968 119.786 82.3034C118.865 83.2147 117.71 83.7145 116.692 84.0028C115.655 84.298 114.586 84.4212 113.667 84.4677C112.63 84.5178 111.59 84.4906 110.557 84.3863L110.483 84.3793V105.276C111.401 104.369 112.556 103.869 113.574 103.579C114.609 103.286 115.678 103.16 116.596 103.114C117.706 103.061 118.817 103.097 119.921 103.221L119.983 103.228L120.004 103.23H120.014C121.076 103.374 121.906 104.225 122.02 105.292V105.322L122.029 105.385C122.06 105.703 122.08 106.023 122.09 106.343C122.113 106.956 122.12 107.805 122.052 108.74C121.983 109.665 121.836 110.739 121.525 111.776C121.218 112.791 120.702 113.942 119.786 114.851C118.865 115.76 117.71 116.26 116.692 116.548C115.655 116.843 114.586 116.966 113.667 117.013C112.63 117.063 111.59 117.036 110.557 116.932L110.483 116.925V119.363C110.483 119.98 110.238 120.571 109.802 121.007C109.366 121.443 108.774 121.688 108.158 121.688C107.541 121.688 106.95 121.443 106.514 121.007C106.078 120.571 105.833 119.98 105.833 119.363V100.65L105.759 100.657C104.725 100.761 103.686 100.788 102.648 100.738C101.627 100.694 100.614 100.538 99.6263 100.273C98.6035 99.9848 97.4505 99.485 96.5322 98.5761C95.614 97.6671 95.0979 96.5164 94.791 95.5005C94.5035 94.5111 94.3266 93.4929 94.2633 92.4645C94.1813 91.3476 94.1891 90.2258 94.2866 89.11L94.2936 89.0473L94.2959 89.0264V89.0171C94.4121 87.95 95.2397 87.0992 96.3021 86.9574H96.3114L96.3323 86.9528L96.3951 86.9458L96.6089 86.9225C96.7903 86.9024 97.0351 86.8815 97.3435 86.8598C98.1345 86.8086 98.9277 86.8024 99.7193 86.8412C100.638 86.8877 101.707 87.0109 102.741 87.3061C103.762 87.5944 104.915 88.0918 105.833 89.0008V66.9537C105.217 66.3882 104.632 65.7899 104.08 65.1613C103.356 64.3435 102.722 63.4495 102.19 62.495C101.656 61.5023 101.184 60.2703 101.184 58.9219C101.184 57.5736 101.653 56.3392 102.19 55.3466C102.734 54.3377 103.432 53.4264 104.08 52.6802C104.866 51.787 105.72 50.9554 106.633 50.1928L106.684 50.151L106.7 50.137L106.707 50.1324C107.556 49.4582 108.76 49.4559 109.608 50.1301L109.615 50.137L109.632 50.1487L109.683 50.1928C109.945 50.4072 110.201 50.6297 110.45 50.86C110.934 51.3017 111.58 51.9294 112.235 52.6802C112.886 53.4241 113.581 54.3377 114.125 55.3466C114.66 56.3392 115.132 57.5736 115.132 58.9219C115.132 60.2703 114.662 61.5046 114.125 62.4973C113.594 63.4518 112.96 64.3458 112.235 65.1637ZM108.73 62.1091C108.545 62.3217 108.354 62.5294 108.158 62.7321C107.962 62.5294 107.771 62.3217 107.586 62.1091C107.087 61.5508 106.649 60.9406 106.28 60.2888C105.945 59.6658 105.833 59.2102 105.833 58.9219C105.833 58.6337 105.945 58.1781 106.28 57.555C106.607 56.9506 107.072 56.323 107.586 55.7348C107.78 55.5132 107.97 55.3055 108.158 55.1118C108.344 55.3055 108.534 55.5132 108.73 55.7348C109.241 56.3253 109.708 56.9506 110.036 57.555C110.371 58.1781 110.483 58.6337 110.483 58.9219C110.483 59.2102 110.371 59.6658 110.036 60.2888C109.708 60.8933 109.243 61.5209 108.73 62.1091ZM114.841 108.054C114.235 108.226 113.904 108.43 113.749 108.584C113.593 108.737 113.377 109.077 113.191 109.697C113.002 110.36 112.887 111.041 112.849 111.729C112.833 111.949 112.821 112.169 112.814 112.389C113.014 112.388 113.219 112.381 113.43 112.371C114.142 112.333 114.837 112.243 115.422 112.075C116.029 111.903 116.362 111.699 116.515 111.545C116.671 111.392 116.887 111.053 117.073 110.432C117.262 109.769 117.376 109.088 117.415 108.4C117.431 108.18 117.442 107.96 117.45 107.74C117.25 107.741 117.044 107.748 116.834 107.758C116.161 107.784 115.493 107.883 114.841 108.054ZM113.749 76.0385C113.904 75.885 114.235 75.6805 114.841 75.5084C115.429 75.3411 116.124 75.2504 116.834 75.2132C117.044 75.2023 117.25 75.1961 117.45 75.1946C117.442 75.4149 117.431 75.635 117.415 75.8548C117.361 76.5778 117.252 77.2891 117.073 77.8866C116.887 78.5072 116.671 78.8443 116.515 79.0001C116.362 79.1535 116.029 79.3581 115.422 79.5301C114.771 79.7003 114.103 79.7993 113.43 79.8253C113.219 79.8362 113.014 79.8424 112.814 79.8439C112.822 79.6301 112.834 79.41 112.849 79.1837C112.903 78.4608 113.012 77.7494 113.191 77.152C113.377 76.5313 113.593 76.1942 113.749 76.0385ZM98.8662 91.4673C98.8739 91.6811 98.8856 91.9012 98.9011 92.1275C98.9545 92.8504 99.0638 93.5618 99.2428 94.1592C99.4288 94.7799 99.6449 95.117 99.8007 95.2727C99.9564 95.4262 100.287 95.6307 100.893 95.8028C101.481 95.9701 102.176 96.0608 102.886 96.098C103.096 96.1088 103.302 96.115 103.502 96.1166C103.494 95.8963 103.483 95.6762 103.467 95.4564C103.428 94.7686 103.314 94.0871 103.125 93.4246C102.939 92.8039 102.723 92.4669 102.567 92.3111C102.414 92.1577 102.081 91.9531 101.474 91.7811C100.823 91.6108 100.155 91.5118 99.4822 91.4858C99.277 91.4751 99.0716 91.4689 98.8662 91.4673Z" fill="#F8F4E1"/>
</svg>
