<svg width="40" height="35" viewBox="0 0 40 35" fill="none" xmlns="http://www.w3.org/2000/svg">
<path d="M8.04444 14.8205C11.2444 20.2046 16.4 24.6184 22.6889 27.358L27.5778 23.1725C28.2 22.6398 29.0667 22.4876 29.8444 22.6969C32.3333 23.4008 35 23.7813 37.7778 23.7813C38.3671 23.7813 38.9324 23.9817 39.3491 24.3385C39.7659 24.6953 40 25.1792 40 25.6838V32.3425C40 32.8471 39.7659 33.331 39.3491 33.6878C38.9324 34.0446 38.3671 34.245 37.7778 34.245C27.7585 34.245 18.1496 30.8375 11.0649 24.7721C3.98015 18.7067 0 10.4803 0 1.9025C0 1.39793 0.234126 0.914018 0.650874 0.55723C1.06762 0.200442 1.63285 0 2.22222 0H10C10.5894 0 11.1546 0.200442 11.5713 0.55723C11.9881 0.914018 12.2222 1.39793 12.2222 1.9025C12.2222 4.28063 12.6667 6.56363 13.4889 8.69443C13.7333 9.36031 13.5556 10.1023 12.9333 10.635L8.04444 14.8205Z" fill="#FEFEFC"/>
</svg>
