<svg width="39" height="24" viewBox="0 0 39 24" fill="none" xmlns="http://www.w3.org/2000/svg">
<path d="M15.5386 17.2336L25.4545 12.357L15.5386 7.48037V17.2336ZM37.6249 4.50563C37.8733 5.26964 38.0453 6.29373 38.1599 7.59416C38.2937 8.89459 38.351 10.0162 38.351 10.9915L38.4656 12.357C38.4656 15.9169 38.1599 18.534 37.6249 20.2083C37.1473 21.6713 36.0392 22.6141 34.3196 23.0205C33.4217 23.2318 31.7786 23.3781 29.2566 23.4757C26.7728 23.5895 24.4993 23.6382 22.3976 23.6382L19.3598 23.7358C11.3544 23.7358 6.36783 23.4757 4.39993 23.0205C2.68041 22.6141 1.57227 21.6713 1.09462 20.2083C0.846248 19.4443 0.674295 18.4203 0.559661 17.1198C0.42592 15.8194 0.368602 14.6978 0.368602 13.7224L0.253967 12.357C0.253967 8.79706 0.559661 6.17994 1.09462 4.50563C1.57227 3.04265 2.68041 2.09984 4.39993 1.69345C5.2979 1.48213 6.941 1.33583 9.46297 1.2383C11.9467 1.12451 14.2203 1.07575 16.322 1.07575L19.3598 0.978214C27.3651 0.978214 32.3517 1.2383 34.3196 1.69345C36.0392 2.09984 37.1473 3.04265 37.6249 4.50563Z" fill="#FEFEFC"/>
</svg>
