<svg width="19" height="20" viewBox="0 0 19 20" fill="none" xmlns="http://www.w3.org/2000/svg">
<path d="M18 18.5L13.9862 14.4791ZM16.2105 9.10526C16.2105 11.1223 15.4093 13.0567 13.983 14.483C12.5567 15.9093 10.6223 16.7105 8.60526 16.7105C6.58822 16.7105 4.65379 15.9093 3.22753 14.483C1.80127 13.0567 1 11.1223 1 9.10526C1 7.08822 1.80127 5.15379 3.22753 3.72753C4.65379 2.30127 6.58822 1.5 8.60526 1.5C10.6223 1.5 12.5567 2.30127 13.983 3.72753C15.4093 5.15379 16.2105 7.08822 16.2105 9.10526Z" fill="#F8F4E1"/>
<path d="M18 18.5L13.9862 14.4791M16.2105 9.10526C16.2105 11.1223 15.4093 13.0567 13.983 14.483C12.5567 15.9093 10.6223 16.7105 8.60526 16.7105C6.58822 16.7105 4.65379 15.9093 3.22753 14.483C1.80127 13.0567 1 11.1223 1 9.10526C1 7.08822 1.80127 5.15379 3.22753 3.72753C4.65379 2.30127 6.58822 1.5 8.60526 1.5C10.6223 1.5 12.5567 2.30127 13.983 3.72753C15.4093 5.15379 16.2105 7.08822 16.2105 9.10526Z" stroke="#3C240B" stroke-width="2" stroke-linecap="round"/>
</svg>
