<svg width="158" height="34" viewBox="0 0 158 34" fill="none" xmlns="http://www.w3.org/2000/svg">
<path d="M39.0423 17.041C39.0423 7.98931 30.2968 0.643011 19.5212 0.643011C8.74548 0.643011 0 7.98931 0 17.041C0 24.9776 6.71528 31.586 15.6169 33.111V21.9604H11.7127V17.041H15.6169V12.9415C15.6169 9.77669 18.6818 7.2022 22.4493 7.2022H27.3296V12.1216H23.4254C22.3517 12.1216 21.4733 12.8595 21.4733 13.7614V17.041H27.3296V21.9604H21.4733V33.357C31.3315 32.5371 39.0423 25.5515 39.0423 17.041Z" fill="#FEFEFC"/>
<path d="M71.1237 0.643011H87.1726C93.2865 0.643011 98.254 4.89583 98.254 10.1301V23.8699C98.254 26.3861 97.0865 28.7991 95.0083 30.5783C92.9302 32.3575 90.1116 33.357 87.1726 33.357H71.1237C65.0099 33.357 60.0424 29.1042 60.0424 23.8699V10.1301C60.0424 7.61394 61.2099 5.20087 63.288 3.4217C65.3662 1.64254 68.1848 0.643011 71.1237 0.643011ZM70.7416 3.91441C68.9174 3.91441 67.168 4.5348 65.8781 5.63912C64.5882 6.74343 63.8635 8.24119 63.8635 9.80292V24.1971C63.8635 27.4521 66.9396 30.0856 70.7416 30.0856H87.5547C89.3789 30.0856 91.1284 29.4652 92.4183 28.3609C93.7082 27.2566 94.4328 25.7588 94.4328 24.1971V9.80292C94.4328 6.54788 91.3568 3.91441 87.5547 3.91441H70.7416ZM89.1787 6.36796C89.8121 6.36796 90.4196 6.58337 90.8675 6.96681C91.3153 7.35026 91.567 7.87031 91.567 8.41258C91.567 8.95485 91.3153 9.47491 90.8675 9.85835C90.4196 10.2418 89.8121 10.4572 89.1787 10.4572C88.5453 10.4572 87.9379 10.2418 87.49 9.85835C87.0421 9.47491 86.7905 8.95485 86.7905 8.41258C86.7905 7.87031 87.0421 7.35026 87.49 6.96681C87.9379 6.58337 88.5453 6.36796 89.1787 6.36796ZM79.1482 8.82151C81.6818 8.82151 84.1116 9.68317 85.9031 11.2169C87.6946 12.7507 88.7011 14.8309 88.7011 17C88.7011 19.1691 87.6946 21.2493 85.9031 22.7831C84.1116 24.3168 81.6818 25.1785 79.1482 25.1785C76.6146 25.1785 74.1848 24.3168 72.3933 22.7831C70.6017 21.2493 69.5953 19.1691 69.5953 17C69.5953 14.8309 70.6017 12.7507 72.3933 11.2169C74.1848 9.68317 76.6146 8.82151 79.1482 8.82151ZM79.1482 12.0929C77.628 12.0929 76.1701 12.6099 75.0952 13.5302C74.0203 14.4504 73.4164 15.6986 73.4164 17C73.4164 18.3014 74.0203 19.5496 75.0952 20.4698C76.1701 21.3901 77.628 21.9071 79.1482 21.9071C80.6683 21.9071 82.1262 21.3901 83.2011 20.4698C84.276 19.5496 84.8799 18.3014 84.8799 17C84.8799 15.6986 84.276 14.4504 83.2011 13.5302C82.1262 12.6099 80.6683 12.0929 79.1482 12.0929Z" fill="#FEFEFC"/>
<path d="M134.539 21.8766L144.455 17L134.539 12.1234V21.8766ZM156.625 9.14865C156.873 9.91265 157.045 10.9367 157.16 12.2372C157.294 13.5376 157.351 14.6592 157.351 15.6345L157.466 17C157.466 20.5599 157.16 23.177 156.625 24.8514C156.147 26.3143 155.039 27.2572 153.32 27.6635C152.422 27.8749 150.779 28.0212 148.257 28.1187C145.773 28.2325 143.499 28.2812 141.398 28.2812L138.36 28.3788C130.354 28.3788 125.368 28.1187 123.4 27.6635C121.68 27.2572 120.572 26.3143 120.095 24.8514C119.846 24.0874 119.674 23.0633 119.56 21.7628C119.426 20.4624 119.369 19.3408 119.369 18.3655L119.254 17C119.254 13.4401 119.56 10.823 120.095 9.14865C120.572 7.68566 121.68 6.74285 123.4 6.33646C124.298 6.12514 125.941 5.97884 128.463 5.88131C130.947 5.76752 133.22 5.71876 135.322 5.71876L138.36 5.62123C146.365 5.62123 151.352 5.88131 153.32 6.33646C155.039 6.74285 156.147 7.68566 156.625 9.14865Z" fill="#FEFEFC"/>
</svg>
